<svg xmlns="http://www.w3.org/2000/svg" viewBox="0 0 67.59 504.02"><defs><style>.cls-1{fill:#010101;}</style></defs><g id="Layer_2" data-name="Layer 2"><g id="Layer_1-2" data-name="Layer 1"><path class="cls-1" d="M9.21,394.18a24.59,24.59,0,1,1,24.58,24.58A24.61,24.61,0,0,1,9.21,394.18m-9.21,0a33.8,33.8,0,1,0,33.79-33.8A33.79,33.79,0,0,0,0,394.18Z"/><path class="cls-1" d="M2,268.71a.92.92,0,0,0,.44.77l47.05,34.81-47,34.82a.9.9,0,0,0-.44.77.92.92,0,0,0,.91.93H65.59V331.6h-37l35.91-26.77a.71.71,0,0,0,.25-.54h0a.71.71,0,0,0-.25-.54L28.57,277h37v-9.2H2.9A.92.92,0,0,0,2,268.71Z"/><path class="cls-1" d="M42.8,232.93H65.59v9.21H2"/><path class="cls-1" d="M2,211.46v30.68h63.6v-9.21H42.8V211.46a20.41,20.41,0,0,0-40.81,0Zm31.6,0v21.47H11.2V211.46a11.2,11.2,0,1,1,22.39,0Z"/><path class="cls-1" d="M48.82,450.78a24.59,24.59,0,1,1-30,0l-6.5-6.61a33.8,33.8,0,1,0,43.05,0Z"/><path class="cls-1" d="M66.72,85.28c0,10.65-5.89,18.09-10.83,22.45l-6.33-6.49c2.1-1.63,8.17-7.09,8.17-16,0-8.29-4.17-14.08-10.15-14.08-5.11,0-8.55,3.47-10.51,10.63l-1.76,7.76c-4.07,16.59-14,16.59-17.27,16.59C7.76,106.18.86,97.88.86,85.54c0-8.11,3.09-15,9.43-21.09l6.35,6.49c-1.75,1.66-6.78,7.12-6.78,14.6C9.86,92.8,12.84,97,18,97c1.55,0,6.73-.58,8.36-8.16l1.58-7C31,68.83,37.8,62,47.58,62,58.49,62,66.72,72,66.72,85.28Z"/><path class="cls-1" d="M66.72,23.29c0,10.65-5.89,18.09-10.83,22.45l-6.33-6.49c2.1-1.62,8.17-7.09,8.17-16,0-8.29-4.17-14.08-10.15-14.08-5.11,0-8.55,3.47-10.51,10.63L35.31,27.6C31.24,44.19,21.3,44.19,18,44.19,7.76,44.19.86,35.89.86,23.55c0-8.11,3.09-15,9.43-21.09L16.64,9c-1.75,1.66-6.78,7.12-6.78,14.6C9.86,30.82,12.84,35,18,35c1.55,0,6.73-.58,8.36-8.16l1.58-7C31,6.84,37.8,0,47.58,0,58.49,0,66.72,10,66.72,23.29Z"/><rect class="cls-1" x="17.87" y="389.57" width="31.84" height="9.21" transform="translate(-268.83 139.35) rotate(-45)"/><path class="cls-1" d="M2,152.71a.93.93,0,0,0-.53.84.94.94,0,0,0,.53.84L65.59,188V177.54L49.29,169v-30.8l16.3-8.59V119.14Zm38.13,11.38-20-10.54,20-10.54Z"/></g></g></svg>